<?xml version="1.0" encoding="utf-8" standalone="yes"?> <svg width="1000" height="1000" viewBox="-1 -1 35 35" xmlns="http://www.w3.org/2000/svg" shape-rendering="crispEdges" id="qr code"><rect id="qr background" fill-opacity="1" fill="rgb(255, 255, 255)" x="-1" y="-1" width="35" height="35"></rect><path fill-opacity="1" fill="rgb(0, 0, 0)" id="qr dark pixels" fill-rule="evenodd" d="M 9 0 L 10 0 L 10 2 L 11 2 L 11 1 L 13 1 L 13 2 L 12 2 L 12 4 L 11 4 L 11 3 L 10 3 L 10 4 L 8 4 L 8 3 L 9 3 L 9 2 L 8 2 L 8 1 L 9 1 z M 13 0 L 14 0 L 14 1 L 13 1 z M 16 0 L 17 0 L 17 1 L 16 1 z M 19 0 L 21 0 L 21 1 L 22 1 L 22 2 L 23 2 L 23 4 L 22 4 L 22 3 L 21 3 L 21 2 L 20 2 L 20 1 L 19 1 z M 23 0 L 24 0 L 24 1 L 23 1 z M 15 1 L 16 1 L 16 2 L 15 2 z M 17 1 L 18 1 L 18 2 L 17 2 z M 24 1 L 25 1 L 25 2 L 24 2 z M 14 2 L 15 2 L 15 3 L 16 3 L 16 2 L 17 2 L 17 3 L 18 3 L 18 4 L 17 4 L 17 5 L 16 5 L 16 4 L 13 4 L 13 3 L 14 3 z M 18 2 L 19 2 L 19 3 L 18 3 z M 19 3 L 20 3 L 20 4 L 22 4 L 22 5 L 18 5 L 18 4 L 19 4 z M 10 4 L 11 4 L 11 7 L 10 7 z M 12 4 L 13 4 L 13 5 L 12 5 z M 23 4 L 24 4 L 24 5 L 23 5 z M 8 5 L 9 5 L 9 7 L 8 7 z M 14 5 L 16 5 L 16 6 L 15 6 L 15 8 L 18 8 L 18 9 L 17 9 L 17 10 L 19 10 L 19 12 L 18 12 L 18 11 L 17 11 L 17 12 L 16 12 L 16 13 L 15 13 L 15 12 L 14 12 L 14 11 L 12 11 L 12 13 L 11 13 L 11 12 L 10 12 L 10 13 L 9 13 L 9 12 L 8 12 L 8 11 L 6 11 L 6 12 L 5 12 L 5 11 L 2 11 L 2 10 L 1 10 L 1 9 L 0 9 L 0 8 L 5 8 L 5 9 L 4 9 L 4 10 L 5 10 L 5 9 L 6 9 L 6 10 L 9 10 L 9 9 L 6 9 L 6 8 L 11 8 L 11 9 L 10 9 L 10 11 L 11 11 L 11 10 L 14 10 L 14 9 L 12 9 L 12 6 L 13 6 L 13 8 L 14 8 zM 15 9 L 16 9 L 16 10 L 15 10 z M 16 6 L 17 6 L 17 7 L 16 7 z M 18 6 L 19 6 L 19 7 L 18 7 z M 20 6 L 21 6 L 21 7 L 20 7 z M 22 6 L 23 6 L 23 7 L 24 7 L 24 8 L 26 8 L 26 9 L 24 9 L 24 10 L 19 10 L 19 9 L 20 9 L 20 8 L 21 8 L 21 9 L 22 9 L 22 8 L 21 8 L 21 7 L 22 7 z M 24 6 L 25 6 L 25 7 L 24 7 z M 19 7 L 20 7 L 20 8 L 19 8 z M 27 8 L 28 8 L 28 9 L 27 9 z M 29 8 L 30 8 L 30 9 L 29 9 z M 31 8 L 32 8 L 32 9 L 33 9 L 33 10 L 32 10 L 32 11 L 31 11 L 31 10 L 30 10 L 30 9 L 31 9 z M 26 9 L 27 9 L 27 10 L 26 10 z M 24 10 L 26 10 L 26 13 L 24 13 L 24 12 L 20 12 L 20 11 L 24 11 z M 27 10 L 28 10 L 28 11 L 27 11 z M 29 10 L 30 10 L 30 11 L 29 11 z M 30 11 L 31 11 L 31 12 L 30 12 z M 1 12 L 2 12 L 2 14 L 3 14 L 3 15 L 0 15 L 0 14 L 1 14 z M 3 12 L 4 12 L 4 13 L 3 13 z M 6 12 L 7 12 L 7 13 L 6 13 z M 28 12 L 30 12 L 30 13 L 28 13 z M 4 13 L 6 13 L 6 14 L 4 14 z M 7 13 L 8 13 L 8 15 L 6 15 L 6 14 L 7 14 z M 10 13 L 11 13 L 11 14 L 10 14 z M 12 13 L 14 13 L 14 14 L 16 14 L 16 15 L 14 15 L 14 16 L 13 16 L 13 17 L 12 17 L 12 15 L 13 15 L 13 14 L 12 14 z M 16 13 L 17 13 L 17 14 L 16 14 z M 19 13 L 21 13 L 21 15 L 22 15 L 22 16 L 20 16 L 20 18 L 19 18 L 19 15 L 20 15 L 20 14 L 19 14 z M 23 13 L 24 13 L 24 14 L 23 14 z M 26 13 L 27 13 L 27 14 L 26 14 z M 31 13 L 33 13 L 33 14 L 32 14 L 32 15 L 31 15 z M 17 14 L 19 14 L 19 15 L 17 15 z M 22 14 L 23 14 L 23 15 L 22 15 z M 25 14 L 26 14 L 26 17 L 24 17 L 24 18 L 23 18 L 23 17 L 22 17 L 22 16 L 23 16 L 23 15 L 24 15 L 24 16 L 25 16 z M 28 14 L 29 14 L 29 15 L 28 15 z M 3 15 L 4 15 L 4 16 L 3 16 z M 8 15 L 10 15 L 10 16 L 11 16 L 11 18 L 13 18 L 13 19 L 12 19 L 12 21 L 10 21 L 10 20 L 9 20 L 9 19 L 10 19 L 10 18 L 8 18 L 8 17 L 9 17 L 9 16 L 8 16 z M 16 15 L 17 15 L 17 16 L 18 16 L 18 17 L 17 17 L 17 20 L 16 20 L 16 19 L 15 19 L 15 18 L 16 18 L 16 17 L 14 17 L 14 16 L 16 16 z M 27 15 L 28 15 L 28 16 L 27 16 z M 30 15 L 31 15 L 31 16 L 30 16 z M 0 16 L 3 16 L 3 17 L 5 17 L 5 20 L 4 20 L 4 18 L 2 18 L 2 20 L 3 20 L 3 21 L 4 21 L 4 22 L 5 22 L 5 24 L 4 24 L 4 25 L 2 25 L 2 23 L 3 23 L 3 22 L 2 22 L 2 21 L 1 21 L 1 20 L 0 20 L 0 18 L 1 18 L 1 17 L 0 17 z M 6 16 L 8 16 L 8 17 L 6 17 z M 28 16 L 29 16 L 29 17 L 28 17 z M 31 16 L 32 16 L 32 17 L 33 17 L 33 18 L 32 18 L 32 19 L 31 19 z M 26 17 L 27 17 L 27 18 L 29 18 L 29 17 L 30 17 L 30 19 L 29 19 L 29 21 L 28 21 L 28 22 L 26 22 L 26 21 L 27 21 L 27 20 L 28 20 L 28 19 L 25 19 L 25 20 L 23 20 L 23 21 L 24 21 L 24 22 L 21 22 L 21 23 L 20 23 L 20 22 L 19 22 L 19 23 L 18 23 L 18 21 L 20 21 L 20 20 L 21 20 L 21 21 L 22 21 L 22 20 L 21 20 L 21 19 L 22 19 L 22 18 L 23 18 L 23 19 L 24 19 L 24 18 L 26 18 z M 6 18 L 8 18 L 8 19 L 6 19 z M 20 18 L 21 18 L 21 19 L 20 19 z M 14 19 L 15 19 L 15 20 L 14 20 z M 18 19 L 20 19 L 20 20 L 18 20 z M 30 19 L 31 19 L 31 20 L 30 20 z M 5 20 L 8 20 L 8 23 L 9 23 L 9 22 L 10 22 L 10 23 L 11 23 L 11 24 L 10 24 L 10 25 L 9 25 L 9 26 L 13 26 L 13 27 L 12 27 L 12 29 L 10 29 L 10 31 L 9 31 L 9 32 L 10 32 L 10 33 L 8 33 L 8 28 L 11 28 L 11 27 L 8 27 L 8 24 L 7 24 L 7 23 L 6 23 L 6 22 L 7 22 L 7 21 L 5 21 z M 17 20 L 18 20 L 18 21 L 17 21 z M 25 20 L 26 20 L 26 21 L 25 21 z M 31 20 L 32 20 L 32 21 L 33 21 L 33 22 L 32 22 L 32 23 L 31 23 z M 0 21 L 1 21 L 1 25 L 0 25 z M 12 21 L 15 21 L 15 22 L 16 22 L 16 21 L 17 21 L 17 24 L 16 24 L 16 23 L 14 23 L 14 24 L 13 24 L 13 25 L 12 25 L 12 23 L 13 23 L 13 22 L 12 22 z M 29 21 L 30 21 L 30 23 L 31 23 L 31 24 L 29 24 L 29 23 L 28 23 L 28 22 L 29 22 z M 24 22 L 25 22 L 25 23 L 24 23 z M 19 23 L 20 23 L 20 24 L 19 24 z M 21 23 L 22 23 L 22 24 L 21 24 z M 26 23 L 28 23 L 28 24 L 26 24 z M 5 24 L 7 24 L 7 25 L 5 25 z M 14 24 L 15 24 L 15 25 L 14 25 z M 17 24 L 18 24 L 18 25 L 17 25 z M 22 24 L 23 24 L 23 25 L 22 25 z M 32 24 L 33 24 L 33 26 L 32 26 z M 19 25 L 22 25 L 22 26 L 21 26 L 21 27 L 22 27 L 22 26 L 23 26 L 23 25 L 24 25 L 24 28 L 20 28 L 20 29 L 21 29 L 21 30 L 19 30 L 19 31 L 18 31 L 18 30 L 17 30 L 17 32 L 16 32 L 16 31 L 14 31 L 14 32 L 13 32 L 13 33 L 12 33 L 12 31 L 13 31 L 13 30 L 12 30 L 12 29 L 15 29 L 15 30 L 16 30 L 16 29 L 17 29 L 17 28 L 18 28 L 18 29 L 19 29 L 19 28 L 18 28 L 18 27 L 20 27 L 20 26 L 19 26 z M 29 25 L 31 25 L 31 26 L 32 26 L 32 27 L 31 27 L 31 28 L 29 28 L 29 27 L 30 27 L 30 26 L 29 26 z M 15 26 L 16 26 L 16 27 L 15 27 z M 14 27 L 15 27 L 15 28 L 14 28 z M 16 27 L 17 27 L 17 28 L 16 28 z M 32 27 L 33 27 L 33 30 L 31 30 L 31 28 L 32 28 z M 23 29 L 24 29 L 24 31 L 23 31 L 23 32 L 25 32 L 25 31 L 26 31 L 26 30 L 27 30 L 27 32 L 28 32 L 28 33 L 22 33 L 22 32 L 20 32 L 20 31 L 22 31 L 22 30 L 23 30 z M 25 29 L 26 29 L 26 30 L 25 30 z M 28 29 L 30 29 L 30 31 L 31 31 L 31 32 L 28 32 L 28 31 L 29 31 L 29 30 L 28 30 z M 14 32 L 15 32 L 15 33 L 14 33 z M 17 32 L 18 32 L 18 33 L 17 33 z M 31 32 L 32 32 L 32 33 L 31 33 z"></path><path id="qr squares" d="M0,0h7h0v0v7v0h0h-7h0v0v-7v0h0zM1,1h5h0v0v5v0h0h-5h0v0v-5v0h0zM2,2h3h0v0v3v0h0h-3h0v0v-3v0h0z M26,0h7h0v0v7v0h0h-7h0v0v-7v0h0zM27,1h5h0v0v5v0h0h-5h0v0v-5v0h0zM28,2h3h0v0v3v0h0h-3h0v0v-3v0h0z M0,26h7h0v0v7v0h0h-7h0v0v-7v0h0zM1,27h5h0v0v5v0h0h-5h0v0v-5v0h0zM2,28h3h0v0v3v0h0h-3h0v0v-3v0h0zM24,24h5h0v0v5v0h0h-5h0v0v-5v0h0zM25,25h3h0v0v3v0h0h-3h0v0v-3v0h0zM26,26h1h0v0v1v0h0h-1h0v0v-1v0h0z" fill-rule="evenodd" fill-opacity="1" fill="rgb(0, 0, 0)"></path></svg>