<?xml version="1.0" encoding="utf-8" standalone="yes"?> <svg width="1000" height="1000" viewBox="-1 -1 51 51" xmlns="http://www.w3.org/2000/svg" shape-rendering="crispEdges" id="qr code"><rect id="qr background" fill-opacity="1" fill="rgb(255, 255, 255)" x="-1" y="-1" width="51" height="51"></rect><path fill-opacity="1" fill="rgb(0, 0, 0)" id="qr dark pixels" fill-rule="evenodd" d="M 9 0 L 10 0 L 10 2 L 8 2 L 8 1 L 9 1 z M 13 0 L 16 0 L 16 1 L 15 1 L 15 2 L 16 2 L 16 3 L 15 3 L 15 4 L 13 4 L 13 5 L 14 5 L 14 6 L 13 6 L 13 7 L 12 7 L 12 6 L 11 6 L 11 5 L 12 5 L 12 4 L 11 4 L 11 5 L 10 5 L 10 6 L 9 6 L 9 7 L 8 7 L 8 5 L 9 5 L 9 4 L 8 4 L 8 3 L 14 3 L 14 2 L 13 2 z M 17 0 L 18 0 L 18 2 L 17 2 z M 21 0 L 22 0 L 22 1 L 24 1 L 24 3 L 23 3 L 23 2 L 21 2 z M 24 0 L 25 0 L 25 1 L 24 1 z M 29 0 L 34 0 L 34 1 L 29 1 z M 36 0 L 38 0 L 38 1 L 40 1 L 40 0 L 41 0 L 41 3 L 40 3 L 40 4 L 39 4 L 39 2 L 34 2 L 34 1 L 36 1 z M 11 1 L 12 1 L 12 2 L 11 2 z M 25 1 L 28 1 L 28 2 L 26 2 L 26 3 L 25 3 z M 28 2 L 31 2 L 31 3 L 30 3 L 30 4 L 31 4 L 31 3 L 32 3 L 32 5 L 28 5 L 28 4 L 29 4 L 29 3 L 28 3 z M 32 2 L 33 2 L 33 3 L 32 3 z M 18 3 L 19 3 L 19 4 L 18 4 z M 20 3 L 21 3 L 21 4 L 20 4 z M 24 3 L 25 3 L 25 4 L 24 4 z M 26 3 L 28 3 L 28 4 L 26 4 z M 35 3 L 38 3 L 38 5 L 37 5 L 37 4 L 36 4 L 36 5 L 35 5 z M 15 4 L 16 4 L 16 5 L 15 5 z M 19 4 L 20 4 L 20 6 L 19 6 L 19 7 L 18 7 L 18 6 L 17 6 L 17 5 L 19 5 z M 21 4 L 22 4 L 22 6 L 21 6 z M 33 4 L 34 4 L 34 5 L 35 5 L 35 7 L 36 7 L 36 8 L 34 8 L 34 10 L 33 10 L 33 8 L 31 8 L 31 9 L 32 9 L 32 10 L 30 10 L 30 8 L 28 8 L 28 9 L 27 9 L 27 7 L 28 7 L 28 6 L 29 6 L 29 7 L 30 7 L 30 6 L 31 6 L 31 7 L 32 7 L 32 5 L 33 5 zM 33 6 L 34 6 L 34 7 L 33 7 z M 27 5 L 28 5 L 28 6 L 27 6 z M 36 5 L 37 5 L 37 7 L 36 7 z M 38 5 L 39 5 L 39 7 L 38 7 z M 10 6 L 11 6 L 11 8 L 14 8 L 14 9 L 13 9 L 13 11 L 12 11 L 12 10 L 11 10 L 11 9 L 10 9 L 10 8 L 9 8 L 9 7 L 10 7 z M 14 6 L 15 6 L 15 7 L 14 7 z M 16 6 L 17 6 L 17 7 L 16 7 z M 20 6 L 21 6 L 21 7 L 20 7 z M 40 6 L 41 6 L 41 8 L 42 8 L 42 9 L 43 9 L 43 10 L 41 10 L 41 9 L 40 9 z M 15 7 L 16 7 L 16 8 L 17 8 L 17 9 L 16 9 L 16 10 L 14 10 L 14 9 L 15 9 z M 19 7 L 20 7 L 20 8 L 21 8 L 21 9 L 18 9 L 18 8 L 19 8 z M 0 8 L 5 8 L 5 9 L 4 9 L 4 10 L 3 10 L 3 12 L 7 12 L 7 13 L 6 13 L 6 14 L 5 14 L 5 13 L 2 13 L 2 12 L 0 12 L 0 11 L 2 11 L 2 9 L 0 9 z M 6 8 L 9 8 L 9 9 L 8 9 L 8 11 L 6 11 L 6 10 L 7 10 L 7 9 L 6 9 z M 36 8 L 37 8 L 37 9 L 38 9 L 38 10 L 39 10 L 39 9 L 40 9 L 40 10 L 41 10 L 41 11 L 43 11 L 43 12 L 42 12 L 42 13 L 43 13 L 43 14 L 41 14 L 41 13 L 39 13 L 39 12 L 38 12 L 38 13 L 37 13 L 37 15 L 36 15 L 36 14 L 35 14 L 35 13 L 34 13 L 34 10 L 36 10 zM 35 11 L 37 11 L 37 12 L 35 12 z M 43 8 L 44 8 L 44 9 L 43 9 z M 45 8 L 46 8 L 46 11 L 45 11 L 45 10 L 44 10 L 44 9 L 45 9 z M 47 8 L 48 8 L 48 10 L 47 10 z M 9 9 L 10 9 L 10 10 L 11 10 L 11 12 L 13 12 L 13 13 L 12 13 L 12 14 L 10 14 L 10 13 L 8 13 L 8 12 L 10 12 L 10 11 L 9 11 z M 22 9 L 23 9 L 23 10 L 22 10 z M 28 9 L 29 9 L 29 10 L 28 10 z M 17 10 L 18 10 L 18 11 L 19 11 L 19 13 L 20 13 L 20 15 L 21 15 L 21 13 L 22 13 L 22 12 L 23 12 L 23 14 L 22 14 L 22 16 L 21 16 L 21 17 L 18 17 L 18 15 L 19 15 L 19 14 L 18 14 L 18 15 L 17 15 L 17 17 L 16 17 L 16 15 L 14 15 L 14 16 L 12 16 L 12 17 L 11 17 L 11 15 L 13 15 L 13 13 L 14 13 L 14 14 L 16 14 L 16 13 L 17 13 L 17 12 L 16 12 L 16 11 L 17 11 z M 20 10 L 21 10 L 21 11 L 20 11 z M 23 10 L 25 10 L 25 11 L 23 11 z M 26 10 L 28 10 L 28 11 L 26 11 z M 29 10 L 30 10 L 30 11 L 29 11 z M 48 10 L 49 10 L 49 12 L 48 12 z M 13 11 L 14 11 L 14 12 L 13 12 z M 21 11 L 22 11 L 22 12 L 21 12 z M 25 11 L 26 11 L 26 12 L 25 12 z M 28 11 L 29 11 L 29 12 L 28 12 z M 32 11 L 33 11 L 33 12 L 32 12 z M 44 11 L 45 11 L 45 12 L 44 12 z M 15 12 L 16 12 L 16 13 L 15 13 z M 20 12 L 21 12 L 21 13 L 20 13 z M 24 12 L 25 12 L 25 13 L 24 13 z M 27 12 L 28 12 L 28 15 L 27 15 L 27 16 L 28 16 L 28 17 L 26 17 L 26 16 L 25 16 L 25 15 L 26 15 L 26 14 L 27 14 z M 30 12 L 32 12 L 32 13 L 31 13 L 31 14 L 30 14 z M 43 12 L 44 12 L 44 13 L 43 13 z M 46 12 L 47 12 L 47 13 L 48 13 L 48 14 L 49 14 L 49 17 L 48 17 L 48 18 L 49 18 L 49 21 L 48 21 L 48 19 L 46 19 L 46 18 L 47 18 L 47 17 L 46 17 L 46 16 L 48 16 L 48 15 L 47 15 L 47 14 L 46 14 L 46 16 L 42 16 L 42 15 L 43 15 L 43 14 L 44 14 L 44 13 L 46 13 z M 0 13 L 2 13 L 2 15 L 3 15 L 3 18 L 2 18 L 2 19 L 1 19 L 1 20 L 0 20 L 0 18 L 1 18 L 1 17 L 0 17 L 0 15 L 1 15 L 1 14 L 0 14 z M 25 13 L 26 13 L 26 14 L 25 14 z M 4 14 L 5 14 L 5 15 L 6 15 L 6 16 L 7 16 L 7 17 L 6 17 L 6 18 L 8 18 L 8 19 L 9 19 L 9 20 L 7 20 L 7 19 L 6 19 L 6 20 L 5 20 L 5 17 L 4 17 z M 6 14 L 8 14 L 8 15 L 6 15 z M 9 14 L 10 14 L 10 15 L 9 15 z M 23 14 L 25 14 L 25 15 L 24 15 L 24 16 L 23 16 z M 32 14 L 33 14 L 33 15 L 34 15 L 34 16 L 32 16 z M 38 14 L 39 14 L 39 15 L 40 15 L 40 16 L 38 16 z M 40 14 L 41 14 L 41 15 L 40 15 z M 28 15 L 29 15 L 29 16 L 28 16 z M 30 15 L 31 15 L 31 16 L 30 16 z M 35 15 L 36 15 L 36 16 L 35 16 z M 9 16 L 10 16 L 10 18 L 9 18 z M 22 16 L 23 16 L 23 17 L 22 17 z M 24 16 L 25 16 L 25 17 L 24 17 z M 29 16 L 30 16 L 30 17 L 29 17 z M 36 16 L 37 16 L 37 17 L 36 17 z M 40 16 L 42 16 L 42 17 L 40 17 z M 13 17 L 16 17 L 16 18 L 15 18 L 15 19 L 16 19 L 16 20 L 15 20 L 15 21 L 13 21 L 13 20 L 14 20 L 14 19 L 13 19 z M 17 17 L 18 17 L 18 18 L 20 18 L 20 19 L 19 19 L 19 20 L 21 20 L 21 21 L 19 21 L 19 23 L 21 23 L 21 24 L 22 24 L 22 26 L 21 26 L 21 25 L 18 25 L 18 24 L 17 24 L 17 23 L 18 23 L 18 22 L 17 22 z M 21 17 L 22 17 L 22 18 L 21 18 z M 28 17 L 29 17 L 29 18 L 28 18 z M 30 17 L 31 17 L 31 18 L 30 18 z M 32 17 L 33 17 L 33 18 L 32 18 z M 35 17 L 36 17 L 36 18 L 35 18 z M 39 17 L 40 17 L 40 18 L 39 18 z M 42 17 L 46 17 L 46 18 L 42 18 z M 10 18 L 12 18 L 12 19 L 10 19 z M 23 18 L 24 18 L 24 20 L 23 20 z M 25 18 L 28 18 L 28 20 L 27 20 L 27 19 L 26 19 L 26 20 L 25 20 z M 29 18 L 30 18 L 30 19 L 29 19 z M 33 18 L 35 18 L 35 19 L 34 19 L 34 20 L 33 20 z M 36 18 L 39 18 L 39 19 L 40 19 L 40 20 L 41 20 L 41 18 L 42 18 L 42 21 L 46 21 L 46 24 L 45 24 L 45 22 L 41 22 L 41 21 L 38 21 L 38 22 L 36 22 L 36 21 L 34 21 L 34 20 L 37 20 L 37 19 L 36 19 z M 3 19 L 4 19 L 4 20 L 3 20 z M 21 19 L 22 19 L 22 20 L 21 20 z M 44 19 L 46 19 L 46 20 L 44 20 z M 2 20 L 3 20 L 3 21 L 6 21 L 6 22 L 3 22 L 3 23 L 2 23 L 2 25 L 1 25 L 1 24 L 0 24 L 0 23 L 1 23 L 1 21 L 2 21 z M 6 20 L 7 20 L 7 21 L 6 21 z M 9 20 L 10 20 L 10 21 L 9 21 z M 11 20 L 12 20 L 12 21 L 11 21 z M 22 20 L 23 20 L 23 21 L 22 21 z M 24 20 L 25 20 L 25 22 L 24 22 z M 29 20 L 30 20 L 30 21 L 31 21 L 31 20 L 32 20 L 32 21 L 33 21 L 33 22 L 36 22 L 36 23 L 34 23 L 34 24 L 38 24 L 38 25 L 34 25 L 34 26 L 33 26 L 33 24 L 28 24 L 28 21 L 29 21 zM 31 22 L 32 22 L 32 23 L 31 23 z M 46 20 L 47 20 L 47 21 L 46 21 z M 8 21 L 9 21 L 9 22 L 8 22 z M 10 21 L 11 21 L 11 23 L 10 23 z M 15 21 L 16 21 L 16 22 L 15 22 z M 21 21 L 22 21 L 22 22 L 21 22 z M 47 21 L 48 21 L 48 22 L 49 22 L 49 25 L 48 25 L 48 26 L 47 26 L 47 27 L 46 27 L 46 28 L 47 28 L 47 29 L 48 29 L 48 30 L 49 30 L 49 32 L 48 32 L 48 31 L 47 31 L 47 30 L 46 30 L 46 31 L 45 31 L 45 29 L 44 29 L 44 28 L 45 28 L 45 25 L 46 25 L 46 24 L 48 24 L 48 23 L 47 23 z M 12 22 L 14 22 L 14 24 L 13 24 L 13 23 L 12 23 z M 38 22 L 40 22 L 40 23 L 38 23 z M 11 23 L 12 23 L 12 25 L 11 25 z M 15 23 L 16 23 L 16 24 L 17 24 L 17 25 L 15 25 z M 3 24 L 4 24 L 4 25 L 3 25 z M 27 24 L 28 24 L 28 25 L 27 25 z M 9 25 L 11 25 L 11 26 L 9 26 z M 14 25 L 15 25 L 15 26 L 14 26 z M 17 25 L 18 25 L 18 26 L 17 26 z M 30 25 L 32 25 L 32 26 L 33 26 L 33 27 L 34 27 L 34 28 L 32 28 L 32 27 L 31 27 L 31 26 L 30 26 z M 0 26 L 1 26 L 1 27 L 0 27 z M 3 26 L 4 26 L 4 27 L 5 27 L 5 28 L 4 28 L 4 29 L 5 29 L 5 30 L 3 30 L 3 29 L 0 29 L 0 28 L 1 28 L 1 27 L 3 27 z M 12 26 L 13 26 L 13 27 L 12 27 z M 15 26 L 16 26 L 16 27 L 15 27 z M 18 26 L 20 26 L 20 27 L 18 27 z M 27 26 L 29 26 L 29 28 L 28 28 L 28 30 L 26 30 L 26 29 L 27 29 L 27 28 L 26 28 L 26 27 L 27 27 z M 34 26 L 39 26 L 39 28 L 38 28 L 38 30 L 37 30 L 37 31 L 36 31 L 36 29 L 35 29 L 35 28 L 37 28 L 37 27 L 34 27 z M 48 26 L 49 26 L 49 27 L 48 27 z M 11 27 L 12 27 L 12 28 L 13 28 L 13 29 L 14 29 L 14 30 L 12 30 L 12 29 L 11 29 z M 13 27 L 14 27 L 14 28 L 13 28 z M 17 27 L 18 27 L 18 28 L 17 28 z M 20 27 L 23 27 L 23 28 L 21 28 L 21 29 L 20 29 z M 30 27 L 31 27 L 31 28 L 30 28 z M 43 27 L 44 27 L 44 28 L 43 28 z M 47 27 L 48 27 L 48 28 L 47 28 z M 6 28 L 7 28 L 7 29 L 6 29 z M 9 28 L 10 28 L 10 29 L 9 29 z M 15 28 L 16 28 L 16 29 L 15 29 z M 18 28 L 19 28 L 19 29 L 20 29 L 20 30 L 19 30 L 19 31 L 18 31 L 18 32 L 20 32 L 20 31 L 23 31 L 23 32 L 24 32 L 24 33 L 23 33 L 23 34 L 21 34 L 21 33 L 22 33 L 22 32 L 21 32 L 21 33 L 18 33 L 18 35 L 17 35 L 17 33 L 16 33 L 16 31 L 15 31 L 15 30 L 16 30 L 16 29 L 17 29 L 17 30 L 18 30 z M 25 28 L 26 28 L 26 29 L 25 29 z M 29 28 L 30 28 L 30 29 L 33 29 L 33 30 L 29 30 z M 39 28 L 41 28 L 41 29 L 40 29 L 40 31 L 38 31 L 38 30 L 39 30 z M 42 28 L 43 28 L 43 29 L 42 29 z M 48 28 L 49 28 L 49 29 L 48 29 z M 7 29 L 9 29 L 9 32 L 7 32 L 7 31 L 8 31 L 8 30 L 7 30 z M 10 29 L 11 29 L 11 30 L 10 30 z M 21 29 L 22 29 L 22 30 L 21 30 z M 24 29 L 25 29 L 25 31 L 27 31 L 27 32 L 28 32 L 28 35 L 29 35 L 29 36 L 26 36 L 26 37 L 25 37 L 25 36 L 24 36 L 24 35 L 27 35 L 27 33 L 26 33 L 26 34 L 24 34 L 24 33 L 25 33 L 25 32 L 24 32 L 24 31 L 23 31 L 23 30 L 24 30 z M 43 29 L 44 29 L 44 32 L 47 32 L 47 33 L 48 33 L 48 34 L 49 34 L 49 37 L 48 37 L 48 36 L 47 36 L 47 35 L 46 35 L 46 33 L 44 33 L 44 34 L 45 34 L 45 35 L 44 35 L 44 36 L 43 36 L 43 35 L 38 35 L 38 34 L 39 34 L 39 33 L 38 33 L 38 34 L 37 34 L 37 33 L 36 33 L 36 32 L 41 32 L 41 31 L 42 31 L 42 34 L 43 34 L 43 31 L 42 31 L 42 30 L 43 30 z M 0 30 L 1 30 L 1 31 L 0 31 z M 5 30 L 7 30 L 7 31 L 6 31 L 6 32 L 7 32 L 7 33 L 5 33 L 5 35 L 4 35 L 4 36 L 3 36 L 3 34 L 2 34 L 2 37 L 1 37 L 1 32 L 2 32 L 2 31 L 3 31 L 3 32 L 5 32 z M 28 30 L 29 30 L 29 31 L 30 31 L 30 32 L 28 32 z M 33 30 L 35 30 L 35 31 L 36 31 L 36 32 L 32 32 L 32 31 L 33 31 z M 10 31 L 14 31 L 14 32 L 11 32 L 11 36 L 10 36 L 10 35 L 9 35 L 9 34 L 8 34 L 8 33 L 9 33 L 9 32 L 10 32 z M 31 32 L 32 32 L 32 33 L 31 33 z M 12 33 L 15 33 L 15 35 L 16 35 L 16 36 L 15 36 L 15 37 L 13 37 L 13 39 L 16 39 L 16 40 L 17 40 L 17 41 L 15 41 L 15 40 L 14 40 L 14 41 L 13 41 L 13 40 L 12 40 L 12 39 L 10 39 L 10 37 L 11 37 L 11 38 L 12 38 L 12 37 L 11 37 L 11 36 L 14 36 L 14 35 L 12 35 z M 30 33 L 31 33 L 31 34 L 30 34 z M 33 33 L 34 33 L 34 34 L 33 34 z M 35 33 L 36 33 L 36 34 L 35 34 z M 6 34 L 8 34 L 8 35 L 9 35 L 9 36 L 7 36 L 7 35 L 6 35 z M 19 34 L 20 34 L 20 36 L 19 36 z M 23 34 L 24 34 L 24 35 L 23 35 z M 29 34 L 30 34 L 30 35 L 29 35 z M 32 34 L 33 34 L 33 36 L 32 36 L 32 38 L 29 38 L 29 39 L 33 39 L 33 40 L 28 40 L 28 37 L 29 37 L 29 36 L 30 36 L 30 37 L 31 37 L 31 36 L 30 36 L 30 35 L 32 35 z M 34 34 L 35 34 L 35 35 L 36 35 L 36 36 L 38 36 L 38 38 L 39 38 L 39 39 L 37 39 L 37 37 L 36 37 L 36 40 L 35 40 L 35 39 L 33 39 L 33 38 L 35 38 L 35 36 L 34 36 z M 36 34 L 37 34 L 37 35 L 36 35 z M 21 35 L 23 35 L 23 36 L 22 36 L 22 37 L 23 37 L 23 38 L 21 38 L 21 37 L 20 37 L 20 36 L 21 36 z M 45 35 L 46 35 L 46 36 L 47 36 L 47 37 L 44 37 L 44 36 L 45 36 z M 4 36 L 5 36 L 5 37 L 6 37 L 6 38 L 7 38 L 7 39 L 5 39 L 5 38 L 4 38 z M 6 36 L 7 36 L 7 37 L 6 37 z M 9 36 L 10 36 L 10 37 L 9 37 z M 17 36 L 18 36 L 18 37 L 17 37 z M 23 36 L 24 36 L 24 37 L 23 37 z M 33 36 L 34 36 L 34 37 L 33 37 z M 39 36 L 41 36 L 41 37 L 40 37 L 40 38 L 39 38 z M 42 36 L 43 36 L 43 37 L 44 37 L 44 38 L 43 38 L 43 39 L 42 39 L 42 38 L 41 38 L 41 37 L 42 37 z M 2 37 L 3 37 L 3 38 L 2 38 z M 8 37 L 9 37 L 9 39 L 8 39 z M 15 37 L 16 37 L 16 38 L 15 38 z M 18 37 L 20 37 L 20 38 L 21 38 L 21 39 L 22 39 L 22 40 L 21 40 L 21 41 L 18 41 L 18 40 L 19 40 L 19 38 L 18 38 z M 24 37 L 25 37 L 25 38 L 24 38 z M 26 37 L 27 37 L 27 38 L 26 38 z M 1 38 L 2 38 L 2 39 L 4 39 L 4 40 L 3 40 L 3 41 L 0 41 L 0 40 L 1 40 z M 45 38 L 46 38 L 46 39 L 45 39 z M 47 38 L 49 38 L 49 41 L 48 41 L 48 39 L 47 39 z M 9 39 L 10 39 L 10 42 L 9 42 L 9 43 L 8 43 L 8 41 L 9 41 z M 24 39 L 27 39 L 27 40 L 24 40 z M 40 39 L 42 39 L 42 40 L 40 40 z M 44 39 L 45 39 L 45 40 L 44 40 z M 6 40 L 7 40 L 7 41 L 6 41 z M 27 40 L 28 40 L 28 41 L 27 41 z M 34 40 L 35 40 L 35 41 L 34 41 z M 36 40 L 38 40 L 38 41 L 36 41 z M 39 40 L 40 40 L 40 43 L 35 43 L 35 44 L 32 44 L 32 43 L 33 43 L 33 42 L 39 42 z M 45 40 L 47 40 L 47 41 L 48 41 L 48 42 L 47 42 L 47 43 L 46 43 L 46 41 L 45 41 z M 12 41 L 13 41 L 13 43 L 14 43 L 14 44 L 13 44 L 13 45 L 12 45 L 12 44 L 10 44 L 10 43 L 12 43 z M 14 41 L 15 41 L 15 42 L 14 42 z M 21 41 L 22 41 L 22 45 L 19 45 L 19 46 L 18 46 L 18 48 L 19 48 L 19 47 L 20 47 L 20 48 L 21 48 L 21 47 L 22 47 L 22 45 L 24 45 L 24 46 L 23 46 L 23 47 L 24 47 L 24 48 L 28 48 L 28 49 L 23 49 L 23 48 L 22 48 L 22 49 L 15 49 L 15 48 L 16 48 L 16 47 L 14 47 L 14 48 L 13 48 L 13 45 L 14 45 L 14 46 L 16 46 L 16 45 L 18 45 L 18 44 L 17 44 L 17 43 L 18 43 L 18 42 L 19 42 L 19 43 L 20 43 L 20 44 L 21 44 L 21 43 L 20 43 L 20 42 L 21 42 z M 28 41 L 29 41 L 29 42 L 28 42 z M 30 41 L 32 41 L 32 42 L 30 42 z M 15 42 L 16 42 L 16 43 L 15 43 z M 29 42 L 30 42 L 30 43 L 29 43 z M 48 42 L 49 42 L 49 45 L 48 45 L 48 44 L 47 44 L 47 43 L 48 43 z M 27 43 L 29 43 L 29 44 L 27 44 z M 8 44 L 9 44 L 9 45 L 10 45 L 10 46 L 9 46 L 9 47 L 10 47 L 10 48 L 9 48 L 9 49 L 8 49 z M 15 44 L 16 44 L 16 45 L 15 45 z M 30 44 L 32 44 L 32 45 L 31 45 L 31 46 L 29 46 L 29 47 L 31 47 L 31 48 L 28 48 L 28 45 L 30 45 z M 36 44 L 37 44 L 37 45 L 36 45 z M 46 44 L 47 44 L 47 45 L 46 45 z M 11 45 L 12 45 L 12 46 L 11 46 z M 32 45 L 33 45 L 33 46 L 35 46 L 35 47 L 33 47 L 33 48 L 32 48 L 32 47 L 31 47 L 31 46 L 32 46 z M 35 45 L 36 45 L 36 46 L 35 46 z M 37 45 L 38 45 L 38 46 L 40 46 L 40 47 L 38 47 L 38 48 L 40 48 L 40 49 L 33 49 L 33 48 L 37 48 L 37 47 L 36 47 L 36 46 L 37 46 z M 40 45 L 45 45 L 45 46 L 44 46 L 44 47 L 45 47 L 45 46 L 47 46 L 47 47 L 46 47 L 46 48 L 44 48 L 44 49 L 43 49 L 43 48 L 41 48 L 41 46 L 40 46 zM 42 46 L 43 46 L 43 47 L 42 47 z M 47 45 L 48 45 L 48 46 L 47 46 z M 20 46 L 21 46 L 21 47 L 20 47 z M 24 46 L 26 46 L 26 47 L 24 47 z M 11 47 L 12 47 L 12 49 L 10 49 L 10 48 L 11 48 z M 48 47 L 49 47 L 49 49 L 46 49 L 46 48 L 48 48 z"></path><path id="qr squares" d="M0,0h7h0v0v7v0h0h-7h0v0v-7v0h0zM1,1h5h0v0v5v0h0h-5h0v0v-5v0h0zM2,2h3h0v0v3v0h0h-3h0v0v-3v0h0z M42,0h7h0v0v7v0h0h-7h0v0v-7v0h0zM43,1h5h0v0v5v0h0h-5h0v0v-5v0h0zM44,2h3h0v0v3v0h0h-3h0v0v-3v0h0z M0,42h7h0v0v7v0h0h-7h0v0v-7v0h0zM1,43h5h0v0v5v0h0h-5h0v0v-5v0h0zM2,44h3h0v0v3v0h0h-3h0v0v-3v0h0zM4,22h5h0v0v5v0h0h-5h0v0v-5v0h0zM5,23h3h0v0v3v0h0h-3h0v0v-3v0h0zM6,24h1h0v0v1v0h0h-1h0v0v-1v0h0z M22,4h5h0v0v5v0h0h-5h0v0v-5v0h0zM23,5h3h0v0v3v0h0h-3h0v0v-3v0h0zM24,6h1h0v0v1v0h0h-1h0v0v-1v0h0z M22,22h5h0v0v5v0h0h-5h0v0v-5v0h0zM23,23h3h0v0v3v0h0h-3h0v0v-3v0h0zM24,24h1h0v0v1v0h0h-1h0v0v-1v0h0z M22,40h5h0v0v5v0h0h-5h0v0v-5v0h0zM23,41h3h0v0v3v0h0h-3h0v0v-3v0h0zM24,42h1h0v0v1v0h0h-1h0v0v-1v0h0z M40,22h5h0v0v5v0h0h-5h0v0v-5v0h0zM41,23h3h0v0v3v0h0h-3h0v0v-3v0h0zM42,24h1h0v0v1v0h0h-1h0v0v-1v0h0z M40,40h5h0v0v5v0h0h-5h0v0v-5v0h0zM41,41h3h0v0v3v0h0h-3h0v0v-3v0h0zM42,42h1h0v0v1v0h0h-1h0v0v-1v0h0z" fill-rule="evenodd" fill-opacity="1" fill="rgb(0, 0, 0)"></path></svg>