<svg xmlns="http://www.w3.org/2000/svg" xmlns:xlink="http://www.w3.org/1999/xlink" xmlns:lucid="lucid" width="400" height="494.47"><g transform="translate(-60.00000000000004 -60.000000000000014)" lucid:page-tab-id="0_0"><path d="M80 85c0-2.76 2.24-5 5-5h230c2.76 0 5 2.24 5 5v47.6c0 2.75-2.24 5-5 5H85c-2.76 0-5-2.25-5-5z" stroke="#000" stroke-width="2" fill="#fff"/><use xlink:href="#a" transform="matrix(1,0,0,1,85.00000000000004,85.00000000000001) translate(43.43260340632603 15.416058394160585)"/><use xlink:href="#b" transform="matrix(1,0,0,1,85.00000000000004,85.00000000000001) translate(120.52360097323601 15.416058394160585)"/><use xlink:href="#c" transform="matrix(1,0,0,1,85.00000000000004,85.00000000000001) translate(57.38199513381995 38.540145985401466)"/><path d="M140 165c0-2.76 2.24-5 5-5h230c2.76 0 5 2.24 5 5v47.6c0 2.75-2.24 5-5 5H145c-2.76 0-5-2.25-5-5z" stroke="#000" stroke-width="2" fill="#fff"/><use xlink:href="#d" transform="matrix(1,0,0,1,145.00000000000006,165) translate(8.266144814090008 28.58708414872799)"/><use xlink:href="#e" transform="matrix(1,0,0,1,145.00000000000006,165) translate(70.1474233529028 28.58708414872799)"/><use xlink:href="#f" transform="matrix(1,0,0,1,145.00000000000006,165) translate(146.8962818003914 28.58708414872799)"/><path d="M109.4 139.6v44.2c0 2.76 2.25 5 5 5H139" stroke="#000" stroke-width="2" fill="none"/><path d="M110.4 139.6h-2v-1h2z"/><path d="M138 203.8v-30" stroke="#000" stroke-width="2" fill="none"/><path d="M140 245c0-2.76 2.24-5 5-5h230c2.76 0 5 2.24 5 5v47.6c0 2.75-2.24 5-5 5H145c-2.76 0-5-2.25-5-5z" stroke="#000" stroke-width="2" fill="#fff"/><use xlink:href="#g" transform="matrix(1,0,0,1,145.00000000000003,244.99999999999997) translate(49.406326034063255 15.416058394160585)"/><use xlink:href="#h" transform="matrix(1,0,0,1,145.00000000000003,244.99999999999997) translate(110.32116788321167 15.416058394160585)"/><use xlink:href="#i" transform="matrix(1,0,0,1,145.00000000000003,244.99999999999997) translate(28.048661800486606 38.540145985401466)"/><use xlink:href="#j" transform="matrix(1,0,0,1,145.00000000000003,244.99999999999997) translate(148.75425790754258 38.540145985401466)"/><path d="M109.4 139.6v124.2c0 2.76 2.25 5 5 5H139" stroke="#000" stroke-width="2" fill="none"/><path d="M110.4 139.6h-2v-1h2z"/><path d="M138 283.8v-30" stroke="#000" stroke-width="2" fill="none"/><path d="M140 325c0-2.76 2.24-5 5-5h230c2.76 0 5 2.24 5 5v66.88c0 2.76-2.24 5-5 5H145c-2.76 0-5-2.24-5-5z" stroke="#000" stroke-width="2" fill="#fff"/><use xlink:href="#k" transform="matrix(1,0,0,1,144.99999999999997,324.99999999999994) translate(9.874108673182343 16.93255354502754)"/><use xlink:href="#l" transform="matrix(1,0,0,1,144.99999999999997,324.99999999999994) translate(73.64439385415167 16.93255354502754)"/><use xlink:href="#m" transform="matrix(1,0,0,1,144.99999999999997,324.99999999999994) translate(142.4545886703912 16.93255354502754)"/><use xlink:href="#n" transform="matrix(1,0,0,1,144.99999999999997,324.99999999999994) translate(181.48817451906515 16.93255354502754)"/><use xlink:href="#o" transform="matrix(1,0,0,1,144.99999999999997,324.99999999999994) translate(19.902500294383167 39.14929805968783)"/><use xlink:href="#p" transform="matrix(1,0,0,1,144.99999999999997,324.99999999999994) translate(40.473560030179726 39.14929805968783)"/><use xlink:href="#q" transform="matrix(1,0,0,1,144.99999999999997,324.99999999999994) translate(66.18738469992543 39.14929805968783)"/><use xlink:href="#r" transform="matrix(1,0,0,1,144.99999999999997,324.99999999999994) translate(140.14034445011407 39.14929805968783)"/><use xlink:href="#s" transform="matrix(1,0,0,1,144.99999999999997,324.99999999999994) translate(170.9969340538089 39.14929805968783)"/><use xlink:href="#t" transform="matrix(1,0,0,1,144.99999999999997,324.99999999999994) translate(60.19606355187468 61.366042574348114)"/><use xlink:href="#u" transform="matrix(1,0,0,1,144.99999999999997,324.99999999999994) translate(106.48094795741694 61.366042574348114)"/><path d="M200 424.3c0-2.77 2.24-5 5-5h230c2.76 0 5 2.23 5 5v105.17c0 2.76-2.24 5-5 5H205c-2.76 0-5-2.24-5-5z" stroke="#000" stroke-width="2" fill="#fff"/><g><use xlink:href="#v" transform="matrix(1,0,0,1,205,424.29214157168553) translate(1.1719297095630667 24.70606164888649)"/><use xlink:href="#w" transform="matrix(1,0,0,1,205,424.29214157168553) translate(62.16322807247541 24.70606164888649)"/><use xlink:href="#x" transform="matrix(1,0,0,1,205,424.29214157168553) translate(130.33896508966566 24.70606164888649)"/><use xlink:href="#y" transform="matrix(1,0,0,1,205,424.29214157168553) translate(169.01264550524667 24.70606164888649)"/><use xlink:href="#z" transform="matrix(1,0,0,1,205,424.29214157168553) translate(213.85169526244204 24.70606164888649)"/><use xlink:href="#A" transform="matrix(1,0,0,1,205,424.29214157168553) translate(16.63630652923215 46.717958802418764)"/><use xlink:href="#B" transform="matrix(1,0,0,1,205,424.29214157168553) translate(42.11303934582043 46.717958802418764)"/><use xlink:href="#C" transform="matrix(1,0,0,1,205,424.29214157168553) translate(67.58977216240872 46.717958802418764)"/><use xlink:href="#D" transform="matrix(1,0,0,1,205,424.29214157168553) translate(98.16185154231465 46.717958802418764)"/><use xlink:href="#E" transform="matrix(1,0,0,1,205,424.29214157168553) translate(143.96901714654038 46.717958802418764)"/><use xlink:href="#F" transform="matrix(1,0,0,1,205,424.29214157168553) translate(174.5410965264463 46.717958802418764)"/><use xlink:href="#G" transform="matrix(1,0,0,1,205,424.29214157168553) translate(25.527686282221456 68.72985595595104)"/><use xlink:href="#H" transform="matrix(1,0,0,1,205,424.29214157168553) translate(71.38580535208037 68.72985595595104)"/><use xlink:href="#I" transform="matrix(1,0,0,1,205,424.29214157168553) translate(133.54903342455577 68.72985595595104)"/><use xlink:href="#J" transform="matrix(1,0,0,1,205,424.29214157168553) translate(42.85186459750149 90.74175310948333)"/><use xlink:href="#K" transform="matrix(1,0,0,1,205,424.29214157168553) translate(117.24392442193927 90.74175310948333)"/><use xlink:href="#L" transform="matrix(1,0,0,1,205,424.29214157168553) translate(156.98762761581702 90.74175310948333)"/></g><path d="M109.4 139.6v213.84c0 2.76 2.25 5 5 5H139" stroke="#000" stroke-width="2" fill="none"/><path d="M110.4 139.6h-2v-1h2z"/><path d="M138 373.44v-30M167.05 398.88v73c0 2.76 2.24 5 5 5H199" stroke="#000" stroke-width="2" fill="none"/><path d="M168.05 398.9h-2v-1.02h2z"/><path d="M198 491.88v-30" stroke="#000" stroke-width="2" fill="none"/><defs><path d="M101-234c-31-9-42 10-38 44h38v23H63V0H32v-167H5v-23h27c-7-52 17-82 69-68v24" id="M"/><path d="M114-163C36-179 61-72 57 0H25l-1-190h30c1 12-1 29 2 39 6-27 23-49 58-41v29" id="N"/><path d="M96-169c-40 0-48 33-48 73s9 75 48 75c24 0 41-14 43-38l32 2c-6 37-31 61-74 61-59 0-76-41-82-99-10-93 101-131 147-64 4 7 5 14 7 22l-32 3c-4-21-16-35-41-35" id="O"/><path d="M110-160c48 1 74 30 74 79 0 53-28 85-80 85-65 0-83-55-86-122-5-90 50-162 133-122 14 7 22 21 27 39l-31 6c-5-40-67-38-82-6-9 19-15 44-15 74 11-20 30-34 60-33zm-7 138c34 0 49-23 49-58s-16-56-50-56c-29 0-50 16-49 49 1 36 15 65 50 65" id="P"/><path d="M54-142c48-35 137-8 131 61C196 18 31 33 14-55l32-4c7 23 22 37 52 37 35-1 51-22 54-58 4-55-73-65-99-34H22l8-134h141v27H59" id="Q"/><path d="M101-251c68 0 85 55 85 127S166 4 100 4C33 4 14-52 14-124c0-73 17-127 87-127zm-1 229c47 0 54-49 54-102s-4-102-53-102c-51 0-55 48-55 102 0 53 5 102 54 102" id="R"/><path d="M0 4l72-265h28L28 4H0" id="S"/><g id="a"><use transform="matrix(0.0535279805352798,0,0,0.0535279805352798,0,0)" xlink:href="#M"/><use transform="matrix(0.0535279805352798,0,0,0.0535279805352798,5.35279805352798,0)" xlink:href="#N"/><use transform="matrix(0.0535279805352798,0,0,0.0535279805352798,11.722627737226277,0)" xlink:href="#O"/><use transform="matrix(0.0535279805352798,0,0,0.0535279805352798,21.357664233576642,0)" xlink:href="#P"/><use transform="matrix(0.0535279805352798,0,0,0.0535279805352798,32.0632603406326,0)" xlink:href="#Q"/><use transform="matrix(0.0535279805352798,0,0,0.0535279805352798,42.76885644768857,0)" xlink:href="#R"/><use transform="matrix(0.0535279805352798,0,0,0.0535279805352798,53.47445255474453,0)" xlink:href="#P"/><use transform="matrix(0.0535279805352798,0,0,0.0535279805352798,64.1800486618005,0)" xlink:href="#S"/></g><path d="M87 75C49 33 22-17 22-94c0-76 28-126 65-167h31c-38 41-64 92-64 168S80 34 118 75H87" id="T"/><path d="M143 4C61 4 22-44 18-125c-5-107 100-154 193-111 17 8 29 25 37 43l-32 9c-13-25-37-40-76-40-61 0-88 39-88 99 0 61 29 100 91 101 35 0 62-11 79-27v-45h-74v-28h105v86C228-13 192 4 143 4" id="U"/><path d="M24-231v-30h32v30H24zM24 0v-190h32V0H24" id="V"/><path d="M59-47c-2 24 18 29 38 22v24C64 9 27 4 27-40v-127H5v-23h24l9-43h21v43h35v23H59v120" id="W"/><path d="M197 0v-115H63V0H30v-248h33v105h134v-105h34V0h-34" id="X"/><path d="M84 4C-5 8 30-112 23-190h32v120c0 31 7 50 39 49 72-2 45-101 50-169h31l1 190h-30c-1-10 1-25-2-33-11 22-28 36-60 37" id="Y"/><path d="M115-194c53 0 69 39 70 98 0 66-23 100-70 100C84 3 66-7 56-30L54 0H23l1-261h32v101c10-23 28-34 59-34zm-8 174c40 0 45-34 45-75 0-40-5-75-45-74-42 0-51 32-51 76 0 43 10 73 51 73" id="Z"/><g id="b"><use transform="matrix(0.0535279805352798,0,0,0.0535279805352798,0,0)" xlink:href="#T"/><use transform="matrix(0.0535279805352798,0,0,0.0535279805352798,6.369829683698297,0)" xlink:href="#U"/><use transform="matrix(0.0535279805352798,0,0,0.0535279805352798,21.357664233576642,0)" xlink:href="#V"/><use transform="matrix(0.0535279805352798,0,0,0.0535279805352798,25.586374695863746,0)" xlink:href="#W"/><use transform="matrix(0.0535279805352798,0,0,0.0535279805352798,30.939172749391727,0)" xlink:href="#X"/><use transform="matrix(0.0535279805352798,0,0,0.0535279805352798,44.8029197080292,0)" xlink:href="#Y"/><use transform="matrix(0.0535279805352798,0,0,0.0535279805352798,55.508515815085154,0)" xlink:href="#Z"/></g><path d="M140-251c81 0 123 46 123 126C263-46 219 4 140 4 59 4 17-45 17-125s42-126 123-126zm0 227c63 0 89-41 89-101s-29-99-89-99c-61 0-89 39-89 99S79-25 140-24" id="aa"/><path d="M177-190C167-65 218 103 67 71c-23-6-38-20-44-43l32-5c15 47 100 32 89-28v-30C133-14 115 1 83 1 29 1 15-40 15-95c0-56 16-97 71-98 29-1 48 16 59 35 1-10 0-23 2-32h30zM94-22c36 0 50-32 50-73 0-42-14-75-50-75-39 0-46 34-46 75s6 73 46 73" id="ab"/><path d="M141-36C126-15 110 5 73 4 37 3 15-17 15-53c-1-64 63-63 125-63 3-35-9-54-41-54-24 1-41 7-42 31l-33-3c5-37 33-52 76-52 45 0 72 20 72 64v82c-1 20 7 32 28 27v20c-31 9-61-2-59-35zM48-53c0 20 12 33 32 33 41-3 63-29 60-74-43 2-92-5-92 41" id="ac"/><path d="M117-194c89-4 53 116 60 194h-32v-121c0-31-8-49-39-48C34-167 62-67 57 0H25l-1-190h30c1 10-1 24 2 32 11-22 29-35 61-36" id="ad"/><path d="M9 0v-24l116-142H16v-24h144v24L44-24h123V0H9" id="ae"/><path d="M100-194c62-1 85 37 85 99 1 63-27 99-86 99S16-35 15-95c0-66 28-99 85-99zM99-20c44 1 53-31 53-75 0-43-8-75-51-75s-53 32-53 75 10 74 51 75" id="af"/><path d="M33-261c38 41 65 92 65 168S71 34 33 75H2C39 34 66-17 66-93S39-220 2-261h31" id="ag"/><g id="c"><use transform="matrix(0.0535279805352798,0,0,0.0535279805352798,0,0)" xlink:href="#aa"/><use transform="matrix(0.0535279805352798,0,0,0.0535279805352798,14.987834549878349,0)" xlink:href="#N"/><use transform="matrix(0.0535279805352798,0,0,0.0535279805352798,21.357664233576642,0)" xlink:href="#ab"/><use transform="matrix(0.0535279805352798,0,0,0.0535279805352798,32.0632603406326,0)" xlink:href="#ac"/><use transform="matrix(0.0535279805352798,0,0,0.0535279805352798,42.76885644768857,0)" xlink:href="#ad"/><use transform="matrix(0.0535279805352798,0,0,0.0535279805352798,53.47445255474453,0)" xlink:href="#V"/><use transform="matrix(0.0535279805352798,0,0,0.0535279805352798,57.70316301703164,0)" xlink:href="#ae"/><use transform="matrix(0.0535279805352798,0,0,0.0535279805352798,67.33819951338201,0)" xlink:href="#ac"/><use transform="matrix(0.0535279805352798,0,0,0.0535279805352798,78.04379562043796,0)" xlink:href="#W"/><use transform="matrix(0.0535279805352798,0,0,0.0535279805352798,83.39659367396594,0)" xlink:href="#V"/><use transform="matrix(0.0535279805352798,0,0,0.0535279805352798,87.62530413625305,0)" xlink:href="#af"/><use transform="matrix(0.0535279805352798,0,0,0.0535279805352798,98.33090024330902,0)" xlink:href="#ad"/><use transform="matrix(0.0535279805352798,0,0,0.0535279805352798,109.03649635036497,0)" xlink:href="#ag"/></g><path d="M85-194c31 0 48 13 60 33l-1-100h32l1 261h-30c-2-10 0-23-3-31C134-8 116 4 85 4 32 4 16-35 15-94c0-66 23-100 70-100zm9 24c-40 0-46 34-46 75 0 40 6 74 45 74 42 0 51-32 51-76 0-42-9-74-50-73" id="ah"/><path d="M210-169c-67 3-38 105-44 169h-31v-121c0-29-5-50-35-48C34-165 62-65 56 0H25l-1-190h30c1 10-1 24 2 32 10-44 99-50 107 0 11-21 27-35 58-36 85-2 47 119 55 194h-31v-121c0-29-5-49-35-48" id="ai"/><g id="d"><use transform="matrix(0.057403783431180695,0,0,0.057403783431180695,0,0)" xlink:href="#ac"/><use transform="matrix(0.057403783431180695,0,0,0.057403783431180695,11.48075668623614,0)" xlink:href="#ah"/><use transform="matrix(0.057403783431180695,0,0,0.057403783431180695,22.96151337247228,0)" xlink:href="#ai"/><use transform="matrix(0.057403783431180695,0,0,0.057403783431180695,40.125244618395314,0)" xlink:href="#V"/><use transform="matrix(0.057403783431180695,0,0,0.057403783431180695,44.66014350945859,0)" xlink:href="#ad"/></g><g id="e"><use transform="matrix(0.057403783431180695,0,0,0.057403783431180695,0,0)" xlink:href="#T"/><use transform="matrix(0.057403783431180695,0,0,0.057403783431180695,6.831050228310503,0)" xlink:href="#U"/><use transform="matrix(0.057403783431180695,0,0,0.057403783431180695,22.9041095890411,0)" xlink:href="#V"/><use transform="matrix(0.057403783431180695,0,0,0.057403783431180695,27.439008480104373,0)" xlink:href="#W"/><use transform="matrix(0.057403783431180695,0,0,0.057403783431180695,33.179386823222444,0)" xlink:href="#X"/><use transform="matrix(0.057403783431180695,0,0,0.057403783431180695,48.046966731898245,0)" xlink:href="#Y"/><use transform="matrix(0.057403783431180695,0,0,0.057403783431180695,59.52772341813438,0)" xlink:href="#Z"/></g><path d="M205 0l-28-72H64L36 0H1l101-248h38L239 0h-34zm-38-99l-47-123c-12 45-31 82-46 123h93" id="aj"/><path d="M135-143c-3-34-86-38-87 0 15 53 115 12 119 90S17 21 10-45l28-5c4 36 97 45 98 0-10-56-113-15-118-90-4-57 82-63 122-42 12 7 21 19 24 35" id="ak"/><g id="f"><use transform="matrix(0.057403783431180695,0,0,0.057403783431180695,0,0)" xlink:href="#aj"/><use transform="matrix(0.057403783431180695,0,0,0.057403783431180695,13.776908023483369,0)" xlink:href="#ah"/><use transform="matrix(0.057403783431180695,0,0,0.057403783431180695,25.257664709719506,0)" xlink:href="#ai"/><use transform="matrix(0.057403783431180695,0,0,0.057403783431180695,42.42139595564254,0)" xlink:href="#V"/><use transform="matrix(0.057403783431180695,0,0,0.057403783431180695,46.956294846705816,0)" xlink:href="#ad"/><use transform="matrix(0.057403783431180695,0,0,0.057403783431180695,58.43705153294196,0)" xlink:href="#ak"/><use transform="matrix(0.057403783431180695,0,0,0.057403783431180695,68.76973255055448,0)" xlink:href="#ag"/></g><path d="M212-179c-10-28-35-45-73-45-59 0-87 40-87 99 0 60 29 101 89 101 43 0 62-24 78-52l27 14C228-24 195 4 139 4 59 4 22-46 18-125c-6-104 99-153 187-111 19 9 31 26 39 46" id="al"/><path d="M233-177c-1 41-23 64-60 70L243 0h-38l-65-103H63V0H30v-248c88 3 205-21 203 71zM63-129c60-2 137 13 137-47 0-61-80-42-137-45v92" id="am"/><path d="M30 0v-248h187v28H63v79h144v27H63v87h162V0H30" id="an"/><g id="g"><use transform="matrix(0.0535279805352798,0,0,0.0535279805352798,0,0)" xlink:href="#al"/><use transform="matrix(0.0535279805352798,0,0,0.0535279805352798,13.863746958637472,0)" xlink:href="#aa"/><use transform="matrix(0.0535279805352798,0,0,0.0535279805352798,28.85158150851582,0)" xlink:href="#am"/><use transform="matrix(0.0535279805352798,0,0,0.0535279805352798,42.71532846715329,0)" xlink:href="#an"/></g><path d="M100-194c63 0 86 42 84 106H49c0 40 14 67 53 68 26 1 43-12 49-29l28 8c-11 28-37 45-77 45C44 4 14-33 15-96c1-61 26-98 85-98zm52 81c6-60-76-77-97-28-3 7-6 17-6 28h103" id="ao"/><g id="h"><use transform="matrix(0.0535279805352798,0,0,0.0535279805352798,0,0)" xlink:href="#T"/><use transform="matrix(0.0535279805352798,0,0,0.0535279805352798,6.369829683698297,0)" xlink:href="#al"/><use transform="matrix(0.0535279805352798,0,0,0.0535279805352798,20.23357664233577,0)" xlink:href="#Y"/><use transform="matrix(0.0535279805352798,0,0,0.0535279805352798,30.93917274939173,0)" xlink:href="#N"/><use transform="matrix(0.0535279805352798,0,0,0.0535279805352798,37.30900243309003,0)" xlink:href="#N"/><use transform="matrix(0.0535279805352798,0,0,0.0535279805352798,43.67883211678833,0)" xlink:href="#ao"/><use transform="matrix(0.0535279805352798,0,0,0.0535279805352798,54.38442822384429,0)" xlink:href="#ad"/><use transform="matrix(0.0535279805352798,0,0,0.0535279805352798,65.09002433090025,0)" xlink:href="#W"/></g><path d="M30-248c87 1 191-15 191 75 0 78-77 80-158 76V0H30v-248zm33 125c57 0 124 11 124-50 0-59-68-47-124-48v98" id="ap"/><g id="i"><use transform="matrix(0.0535279805352798,0,0,0.0535279805352798,0,0)" xlink:href="#ap"/><use transform="matrix(0.0535279805352798,0,0,0.0535279805352798,12.846715328467154,0)" xlink:href="#N"/><use transform="matrix(0.0535279805352798,0,0,0.0535279805352798,19.21654501216545,0)" xlink:href="#af"/><use transform="matrix(0.0535279805352798,0,0,0.0535279805352798,29.92214111922141,0)" xlink:href="#ab"/><use transform="matrix(0.0535279805352798,0,0,0.0535279805352798,40.627737226277375,0)" xlink:href="#N"/><use transform="matrix(0.0535279805352798,0,0,0.0535279805352798,46.997566909975674,0)" xlink:href="#ac"/><use transform="matrix(0.0535279805352798,0,0,0.0535279805352798,57.70316301703164,0)" xlink:href="#ai"/><use transform="matrix(0.0535279805352798,0,0,0.0535279805352798,73.70802919708031,0)" xlink:href="#ai"/><use transform="matrix(0.0535279805352798,0,0,0.0535279805352798,89.71289537712897,0)" xlink:href="#V"/><use transform="matrix(0.0535279805352798,0,0,0.0535279805352798,93.94160583941607,0)" xlink:href="#ad"/><use transform="matrix(0.0535279805352798,0,0,0.0535279805352798,104.64720194647204,0)" xlink:href="#ab"/></g><path d="M127-220V0H93v-220H8v-28h204v28h-85" id="aq"/><g id="j"><use transform="matrix(0.0535279805352798,0,0,0.0535279805352798,0,0)" xlink:href="#aq"/><use transform="matrix(0.0535279805352798,0,0,0.0535279805352798,9.581508515815086,0)" xlink:href="#ao"/><use transform="matrix(0.0535279805352798,0,0,0.0535279805352798,20.28710462287105,0)" xlink:href="#ac"/><use transform="matrix(0.0535279805352798,0,0,0.0535279805352798,30.992700729927012,0)" xlink:href="#ai"/><use transform="matrix(0.0535279805352798,0,0,0.0535279805352798,46.997566909975674,0)" xlink:href="#ag"/></g><g id="k"><use transform="matrix(0.0514276493394914,0,0,0.0514276493394914,0,0)" xlink:href="#U"/><use transform="matrix(0.0514276493394914,0,0,0.0514276493394914,14.399741815057592,0)" xlink:href="#Y"/><use transform="matrix(0.0514276493394914,0,0,0.0514276493394914,24.68527168295587,0)" xlink:href="#ao"/><use transform="matrix(0.0514276493394914,0,0,0.0514276493394914,34.97080155085415,0)" xlink:href="#ak"/><use transform="matrix(0.0514276493394914,0,0,0.0514276493394914,44.227778431962605,0)" xlink:href="#W"/><use transform="matrix(0.0514276493394914,0,0,0.0514276493394914,49.37054336591174,0)" xlink:href="#ak"/></g><path d="M115-194c55 1 70 41 70 98S169 2 115 4C84 4 66-9 55-30l1 105H24l-1-265h31l2 30c10-21 28-34 59-34zm-8 174c40 0 45-34 45-75s-6-73-45-74c-42 0-51 32-51 76 0 43 10 73 51 73" id="ar"/><path d="M24 0v-261h32V0H24" id="as"/><g id="l"><use transform="matrix(0.0514276493394914,0,0,0.0514276493394914,0,0)" xlink:href="#T"/><use transform="matrix(0.0514276493394914,0,0,0.0514276493394914,6.119890271399477,0)" xlink:href="#ap"/><use transform="matrix(0.0514276493394914,0,0,0.0514276493394914,18.462526112877413,0)" xlink:href="#ao"/><use transform="matrix(0.0514276493394914,0,0,0.0514276493394914,28.748055980775693,0)" xlink:href="#af"/><use transform="matrix(0.0514276493394914,0,0,0.0514276493394914,39.03358584867397,0)" xlink:href="#ar"/><use transform="matrix(0.0514276493394914,0,0,0.0514276493394914,49.319115716572256,0)" xlink:href="#as"/><use transform="matrix(0.0514276493394914,0,0,0.0514276493394914,53.38190001439209,0)" xlink:href="#ao"/></g><path d="M206 0h-36l-40-164L89 0H53L-1-190h32L70-26l43-164h34l41 164 42-164h31" id="at"/><path d="M106-169C34-169 62-67 57 0H25v-261h32l-1 103c12-21 28-36 61-36 89 0 53 116 60 194h-32v-121c2-32-8-49-39-48" id="au"/><g id="m"><use transform="matrix(0.0514276493394914,0,0,0.0514276493394914,0,0)" xlink:href="#at"/><use transform="matrix(0.0514276493394914,0,0,0.0514276493394914,13.319761178928273,0)" xlink:href="#au"/><use transform="matrix(0.0514276493394914,0,0,0.0514276493394914,23.605291046826554,0)" xlink:href="#af"/></g><g id="n"><use transform="matrix(0.0514276493394914,0,0,0.0514276493394914,0,0)" xlink:href="#at"/><use transform="matrix(0.0514276493394914,0,0,0.0514276493394914,13.319761178928273,0)" xlink:href="#ac"/><use transform="matrix(0.0514276493394914,0,0,0.0514276493394914,23.605291046826554,0)" xlink:href="#ad"/><use transform="matrix(0.0514276493394914,0,0,0.0514276493394914,33.890820914724834,0)" xlink:href="#W"/></g><g id="o"><use transform="matrix(0.0514276493394914,0,0,0.0514276493394914,0,0)" xlink:href="#W"/><use transform="matrix(0.0514276493394914,0,0,0.0514276493394914,5.14276493394914,0)" xlink:href="#af"/></g><g id="p"><use transform="matrix(0.0514276493394914,0,0,0.0514276493394914,0,0)" xlink:href="#Z"/><use transform="matrix(0.0514276493394914,0,0,0.0514276493394914,10.28552986789828,0)" xlink:href="#ao"/></g><g id="q"><use transform="matrix(0.0514276493394914,0,0,0.0514276493394914,0,0)" xlink:href="#V"/><use transform="matrix(0.0514276493394914,0,0,0.0514276493394914,4.062784297819821,0)" xlink:href="#ad"/><use transform="matrix(0.0514276493394914,0,0,0.0514276493394914,14.3483141657181,0)" xlink:href="#O"/><use transform="matrix(0.0514276493394914,0,0,0.0514276493394914,23.60529104682655,0)" xlink:href="#as"/><use transform="matrix(0.0514276493394914,0,0,0.0514276493394914,27.668075344646372,0)" xlink:href="#Y"/><use transform="matrix(0.0514276493394914,0,0,0.0514276493394914,37.95360521254465,0)" xlink:href="#ah"/><use transform="matrix(0.0514276493394914,0,0,0.0514276493394914,48.23913508044293,0)" xlink:href="#ao"/><use transform="matrix(0.0514276493394914,0,0,0.0514276493394914,58.52466494834121,0)" xlink:href="#ah"/></g><g id="r"><use transform="matrix(0.0514276493394914,0,0,0.0514276493394914,0,0)" xlink:href="#Z"/><use transform="matrix(0.0514276493394914,0,0,0.0514276493394914,10.28552986789828,0)" xlink:href="#Y"/><use transform="matrix(0.0514276493394914,0,0,0.0514276493394914,20.57105973579656,0)" xlink:href="#W"/></g><path d="M47-170H22l-4-78h33" id="av"/><g id="s"><use transform="matrix(0.0514276493394914,0,0,0.0514276493394914,0,0)" xlink:href="#ah"/><use transform="matrix(0.0514276493394914,0,0,0.0514276493394914,10.28552986789828,0)" xlink:href="#af"/><use transform="matrix(0.0514276493394914,0,0,0.0514276493394914,20.57105973579656,0)" xlink:href="#ad"/><use transform="matrix(0.0514276493394914,0,0,0.0514276493394914,30.85658960369484,0)" xlink:href="#av"/><use transform="matrix(0.0514276493394914,0,0,0.0514276493394914,34.353669758780256,0)" xlink:href="#W"/></g><g id="t"><use transform="matrix(0.0514276493394914,0,0,0.0514276493394914,0,0)" xlink:href="#ad"/><use transform="matrix(0.0514276493394914,0,0,0.0514276493394914,10.28552986789828,0)" xlink:href="#ao"/><use transform="matrix(0.0514276493394914,0,0,0.0514276493394914,20.57105973579656,0)" xlink:href="#ao"/><use transform="matrix(0.0514276493394914,0,0,0.0514276493394914,30.85658960369484,0)" xlink:href="#ah"/></g><g id="u"><use transform="matrix(0.0514276493394914,0,0,0.0514276493394914,0,0)" xlink:href="#ac"/><use transform="matrix(0.0514276493394914,0,0,0.0514276493394914,10.28552986789828,0)" xlink:href="#O"/><use transform="matrix(0.0514276493394914,0,0,0.0514276493394914,19.542506749006733,0)" xlink:href="#O"/><use transform="matrix(0.0514276493394914,0,0,0.0514276493394914,28.799483630115184,0)" xlink:href="#ao"/><use transform="matrix(0.0514276493394914,0,0,0.0514276493394914,39.08501349801347,0)" xlink:href="#ak"/><use transform="matrix(0.0514276493394914,0,0,0.0514276493394914,48.34199037912192,0)" xlink:href="#ak"/><use transform="matrix(0.0514276493394914,0,0,0.0514276493394914,57.59896726023037,0)" xlink:href="#ag"/></g><g id="v"><use transform="matrix(0.05095346563317656,0,0,0.05095346563317656,0,0)" xlink:href="#aj"/><use transform="matrix(0.05095346563317656,0,0,0.05095346563317656,12.228831751962375,0)" xlink:href="#as"/><use transform="matrix(0.05095346563317656,0,0,0.05095346563317656,16.254155536983323,0)" xlink:href="#Y"/><use transform="matrix(0.05095346563317656,0,0,0.05095346563317656,26.444848663618636,0)" xlink:href="#ai"/><use transform="matrix(0.05095346563317656,0,0,0.05095346563317656,41.67993488793843,0)" xlink:href="#ad"/><use transform="matrix(0.05095346563317656,0,0,0.05095346563317656,51.87062801457374,0)" xlink:href="#V"/></g><g id="w"><use transform="matrix(0.05095346563317656,0,0,0.05095346563317656,0,0)" xlink:href="#T"/><use transform="matrix(0.05095346563317656,0,0,0.05095346563317656,6.063462410348011,0)" xlink:href="#ap"/><use transform="matrix(0.05095346563317656,0,0,0.05095346563317656,18.292294162310387,0)" xlink:href="#ao"/><use transform="matrix(0.05095346563317656,0,0,0.05095346563317656,28.482987288945697,0)" xlink:href="#af"/><use transform="matrix(0.05095346563317656,0,0,0.05095346563317656,38.67368041558102,0)" xlink:href="#ar"/><use transform="matrix(0.05095346563317656,0,0,0.05095346563317656,48.86437354221633,0)" xlink:href="#as"/><use transform="matrix(0.05095346563317656,0,0,0.05095346563317656,52.889697327237286,0)" xlink:href="#ao"/></g><g id="x"><use transform="matrix(0.05095346563317656,0,0,0.05095346563317656,0,0)" xlink:href="#at"/><use transform="matrix(0.05095346563317656,0,0,0.05095346563317656,13.19694759899273,0)" xlink:href="#au"/><use transform="matrix(0.05095346563317656,0,0,0.05095346563317656,23.387640725628046,0)" xlink:href="#af"/></g><g id="y"><use transform="matrix(0.05095346563317656,0,0,0.05095346563317656,0,0)" xlink:href="#Y"/><use transform="matrix(0.05095346563317656,0,0,0.05095346563317656,10.190693126635313,0)" xlink:href="#ak"/><use transform="matrix(0.05095346563317656,0,0,0.05095346563317656,19.362316940607094,0)" xlink:href="#ao"/><use transform="matrix(0.05095346563317656,0,0,0.05095346563317656,29.553010067242408,0)" xlink:href="#ah"/></g><g id="z"><use transform="matrix(0.05095346563317656,0,0,0.05095346563317656,0,0)" xlink:href="#W"/><use transform="matrix(0.05095346563317656,0,0,0.05095346563317656,5.095346563317657,0)" xlink:href="#af"/></g><g id="A"><use transform="matrix(0.05095346563317656,0,0,0.05095346563317656,0,0)" xlink:href="#Z"/><use transform="matrix(0.05095346563317656,0,0,0.05095346563317656,10.190693126635313,0)" xlink:href="#ao"/></g><g id="B"><use transform="matrix(0.05095346563317656,0,0,0.05095346563317656,0,0)" xlink:href="#af"/><use transform="matrix(0.05095346563317656,0,0,0.05095346563317656,10.190693126635313,0)" xlink:href="#ad"/></g><g id="C"><use transform="matrix(0.05095346563317656,0,0,0.05095346563317656,0,0)" xlink:href="#W"/><use transform="matrix(0.05095346563317656,0,0,0.05095346563317656,5.095346563317657,0)" xlink:href="#au"/><use transform="matrix(0.05095346563317656,0,0,0.05095346563317656,15.286039689952968,0)" xlink:href="#ao"/></g><g id="D"><use transform="matrix(0.05095346563317656,0,0,0.05095346563317656,0,0)" xlink:href="#W"/><use transform="matrix(0.05095346563317656,0,0,0.05095346563317656,5.095346563317657,0)" xlink:href="#ao"/><use transform="matrix(0.05095346563317656,0,0,0.05095346563317656,15.286039689952968,0)" xlink:href="#ac"/><use transform="matrix(0.05095346563317656,0,0,0.05095346563317656,25.47673281658828,0)" xlink:href="#ai"/></g><g id="E"><use transform="matrix(0.05095346563317656,0,0,0.05095346563317656,0,0)" xlink:href="#Z"/><use transform="matrix(0.05095346563317656,0,0,0.05095346563317656,10.190693126635313,0)" xlink:href="#Y"/><use transform="matrix(0.05095346563317656,0,0,0.05095346563317656,20.381386253270627,0)" xlink:href="#W"/></g><g id="F"><use transform="matrix(0.05095346563317656,0,0,0.05095346563317656,0,0)" xlink:href="#ah"/><use transform="matrix(0.05095346563317656,0,0,0.05095346563317656,10.190693126635313,0)" xlink:href="#af"/><use transform="matrix(0.05095346563317656,0,0,0.05095346563317656,20.381386253270627,0)" xlink:href="#ad"/><use transform="matrix(0.05095346563317656,0,0,0.05095346563317656,30.572079379905936,0)" xlink:href="#av"/><use transform="matrix(0.05095346563317656,0,0,0.05095346563317656,34.036915042961944,0)" xlink:href="#W"/></g><g id="G"><use transform="matrix(0.05095346563317656,0,0,0.05095346563317656,0,0)" xlink:href="#ad"/><use transform="matrix(0.05095346563317656,0,0,0.05095346563317656,10.190693126635313,0)" xlink:href="#ao"/><use transform="matrix(0.05095346563317656,0,0,0.05095346563317656,20.381386253270627,0)" xlink:href="#ao"/><use transform="matrix(0.05095346563317656,0,0,0.05095346563317656,30.572079379905936,0)" xlink:href="#ah"/></g><g id="H"><use transform="matrix(0.05095346563317656,0,0,0.05095346563317656,0,0)" xlink:href="#ac"/><use transform="matrix(0.05095346563317656,0,0,0.05095346563317656,10.190693126635313,0)" xlink:href="#O"/><use transform="matrix(0.05095346563317656,0,0,0.05095346563317656,19.362316940607094,0)" xlink:href="#O"/><use transform="matrix(0.05095346563317656,0,0,0.05095346563317656,28.533940754578875,0)" xlink:href="#ao"/><use transform="matrix(0.05095346563317656,0,0,0.05095346563317656,38.72463388121419,0)" xlink:href="#ak"/><use transform="matrix(0.05095346563317656,0,0,0.05095346563317656,47.89625769518597,0)" xlink:href="#ak"/></g><path d="M179-190L93 31C79 59 56 82 12 73V49c39 6 53-20 64-50L1-190h34L92-34l54-156h33" id="aw"/><g id="I"><use transform="matrix(0.05095346563317656,0,0,0.05095346563317656,0,0)" xlink:href="#ac"/><use transform="matrix(0.05095346563317656,0,0,0.05095346563317656,10.190693126635313,0)" xlink:href="#ad"/><use transform="matrix(0.05095346563317656,0,0,0.05095346563317656,20.381386253270627,0)" xlink:href="#aw"/><use transform="matrix(0.05095346563317656,0,0,0.05095346563317656,29.553010067242408,0)" xlink:href="#ai"/><use transform="matrix(0.05095346563317656,0,0,0.05095346563317656,44.788096291562205,0)" xlink:href="#af"/><use transform="matrix(0.05095346563317656,0,0,0.05095346563317656,54.978789418197515,0)" xlink:href="#N"/><use transform="matrix(0.05095346563317656,0,0,0.05095346563317656,61.04225182854553,0)" xlink:href="#ao"/></g><g id="J"><use transform="matrix(0.05095346563317656,0,0,0.05095346563317656,0,0)" xlink:href="#Z"/><use transform="matrix(0.05095346563317656,0,0,0.05095346563317656,10.190693126635313,0)" xlink:href="#ao"/><use transform="matrix(0.05095346563317656,0,0,0.05095346563317656,20.381386253270627,0)" xlink:href="#O"/><use transform="matrix(0.05095346563317656,0,0,0.05095346563317656,29.553010067242408,0)" xlink:href="#ac"/><use transform="matrix(0.05095346563317656,0,0,0.05095346563317656,39.74370319387772,0)" xlink:href="#Y"/><use transform="matrix(0.05095346563317656,0,0,0.05095346563317656,49.93439632051303,0)" xlink:href="#ak"/><use transform="matrix(0.05095346563317656,0,0,0.05095346563317656,59.106020134484815,0)" xlink:href="#ao"/></g><g id="K"><use transform="matrix(0.05095346563317656,0,0,0.05095346563317656,0,0)" xlink:href="#W"/><use transform="matrix(0.05095346563317656,0,0,0.05095346563317656,5.095346563317657,0)" xlink:href="#au"/><use transform="matrix(0.05095346563317656,0,0,0.05095346563317656,15.286039689952968,0)" xlink:href="#ao"/><use transform="matrix(0.05095346563317656,0,0,0.05095346563317656,25.47673281658828,0)" xlink:href="#aw"/></g><g id="L"><use transform="matrix(0.05095346563317656,0,0,0.05095346563317656,0,0)" xlink:href="#as"/><use transform="matrix(0.05095346563317656,0,0,0.05095346563317656,4.025323785020949,0)" xlink:href="#ao"/><use transform="matrix(0.05095346563317656,0,0,0.05095346563317656,14.216016911656261,0)" xlink:href="#M"/><use transform="matrix(0.05095346563317656,0,0,0.05095346563317656,19.311363474973916,0)" xlink:href="#W"/><use transform="matrix(0.05095346563317656,0,0,0.05095346563317656,24.406710038291575,0)" xlink:href="#ag"/></g></defs></g></svg>